<svg width="103" height="15" viewBox="0 0 103 15" fill="none" xmlns="http://www.w3.org/2000/svg">
<path d="M5.15266 0.879016C5.87879 0.879016 6.64736 0.90495 7.45836 0.956816C8.27408 1.00868 9.1228 1.11006 10.0045 1.26094V3.05741C9.60846 2.94425 9.20768 2.8523 8.80217 2.78157C8.39667 2.70613 7.98881 2.64719 7.5786 2.60476C7.17309 2.56232 6.76759 2.53167 6.36209 2.51281C5.95659 2.49395 5.55344 2.48216 5.15266 2.47745C4.95934 2.47745 4.7448 2.48216 4.50904 2.49159C4.278 2.49631 4.03045 2.50574 3.76641 2.51988C3.50707 2.53403 3.2336 2.55525 2.94597 2.58354C2.65835 2.61183 2.36601 2.64719 2.06896 2.68963V5.26409H8.2505V7.00398H2.06896V9.84721C2.52632 9.91322 3.00255 9.96273 3.49764 9.99574C3.99273 10.0287 4.5444 10.0452 5.15266 10.0452C5.97309 10.0452 6.78881 10.0052 7.59981 9.92501C8.41082 9.84485 9.21239 9.69161 10.0045 9.46528V11.2618C9.1228 11.4126 8.27644 11.514 7.46543 11.5659C6.65443 11.6177 5.89293 11.6437 5.18095 11.6437C4.45482 11.6437 3.68389 11.6177 2.86817 11.5659C2.05717 11.514 1.20609 11.4126 0.314925 11.2618V1.26094C1.20609 1.11006 2.05717 1.00868 2.86817 0.956816C3.67918 0.90495 4.44067 0.879016 5.15266 0.879016ZM16.4266 3.58079C16.8415 3.58079 17.2753 3.62794 17.7279 3.72224C18.1853 3.81655 18.6285 3.93914 19.0576 4.09003V0.879016H20.9106V11.092C20.6607 11.1674 20.3613 11.2382 20.0124 11.3042C19.6682 11.3702 19.2981 11.4291 18.902 11.481C18.5059 11.5282 18.0934 11.5682 17.6643 11.6012C17.2399 11.6295 16.8273 11.6437 16.4266 11.6437C15.7004 11.6437 15.0521 11.5942 14.4816 11.4951C13.911 11.3914 13.4277 11.2335 13.0317 11.0213C12.6356 10.8091 12.3338 10.5403 12.1263 10.215C11.9189 9.88965 11.8151 9.503 11.8151 9.05507V6.1694C11.8151 5.72146 11.9189 5.33482 12.1263 5.00948C12.3338 4.68413 12.6356 4.41537 13.0317 4.20319C13.4277 3.99101 13.911 3.83541 14.4816 3.73639C15.0521 3.63266 15.7004 3.58079 16.4266 3.58079ZM16.9358 10.3282C17.1244 10.3282 17.3154 10.3187 17.5087 10.2999C17.7067 10.281 17.8977 10.2551 18.0816 10.2221C18.2702 10.1891 18.447 10.1513 18.612 10.1089C18.7818 10.0665 18.9303 10.0217 19.0576 9.97452V5.53286C18.7323 5.37726 18.3975 5.24995 18.0533 5.15093C17.7138 5.0472 17.3413 4.99533 16.9358 4.99533C16.6434 4.99533 16.3582 5.0024 16.08 5.01655C15.8065 5.02598 15.5495 5.05191 15.3091 5.09435C15.0686 5.13207 14.847 5.18865 14.6442 5.26409C14.4415 5.33482 14.267 5.43148 14.1208 5.55408C13.9794 5.67667 13.8686 5.82755 13.7884 6.00673C13.7083 6.1859 13.6682 6.40044 13.6682 6.65035V8.72972C13.6682 9.11165 13.7554 9.41106 13.9299 9.62796C14.1091 9.84014 14.3472 9.99809 14.6442 10.1018C14.9413 10.2056 15.2878 10.2692 15.6839 10.2928C16.08 10.3164 16.4973 10.3282 16.9358 10.3282ZM24.8572 9.08336C24.8572 9.30025 24.935 9.48179 25.0906 9.62796C25.2509 9.77412 25.4631 9.89436 25.7272 9.98866C25.9959 10.0783 26.3048 10.1443 26.6537 10.1867C27.0026 10.2244 27.3657 10.2433 27.7429 10.2433C28.139 10.2433 28.5114 10.2221 28.8604 10.1796C29.2093 10.1325 29.5134 10.0641 29.7727 9.97452C30.0321 9.88022 30.2372 9.75998 30.3881 9.61381C30.539 9.46764 30.6144 9.29082 30.6144 9.08336V3.58079L32.4957 3.72224V9.53601C32.4957 9.79063 32.4321 10.024 32.3048 10.2362C32.1822 10.4484 32.0101 10.6394 31.7885 10.8091C31.5669 10.9741 31.3052 11.1179 31.0034 11.2405C30.7016 11.3631 30.3739 11.4645 30.0203 11.5447C29.6714 11.6248 29.3012 11.6838 28.9099 11.7215C28.5232 11.7639 28.1342 11.7851 27.7429 11.7851C27.3468 11.7851 26.9555 11.7639 26.5688 11.7215C26.1822 11.6838 25.812 11.6248 25.4584 11.5447C25.1095 11.4645 24.7841 11.3631 24.4824 11.2405C24.1806 11.1179 23.9189 10.9741 23.6973 10.8091C23.4757 10.6394 23.3012 10.4507 23.1739 10.2433C23.0513 10.0311 22.99 9.79534 22.99 9.53601V3.72224L24.8572 3.58079V9.08336Z" fill="#B80606"/>
<path d="M37.7013 2.51988C37.4231 2.54346 37.1684 2.56939 36.9374 2.59768C36.7064 2.62126 36.4847 2.64719 36.2726 2.67548V9.83306C36.5838 9.8755 36.928 9.91322 37.3052 9.94623C37.6824 9.97923 38.0926 10.0028 38.5358 10.017C38.6773 10.0264 38.8164 10.0311 38.9531 10.0311C39.0899 10.0311 39.229 10.0311 39.3704 10.0311C39.5119 10.0311 39.6533 10.0311 39.7948 10.0311C39.9362 10.0311 40.0777 10.0264 40.2191 10.017C40.7472 10.0028 41.2164 9.97688 41.6266 9.93915C42.0415 9.89672 42.4164 9.84249 42.7512 9.77648C42.836 9.30968 42.9068 8.74387 42.9633 8.07903H44.5759C44.5476 8.58355 44.5076 9.09986 44.4557 9.62796C44.4038 10.1513 44.3307 10.6912 44.2364 11.2476C43.3406 11.3985 42.4871 11.4999 41.6761 11.5517C40.8698 11.6036 40.1107 11.6295 39.3987 11.6295C38.6679 11.6295 37.8946 11.6036 37.0789 11.5517C36.2631 11.4999 35.4144 11.3985 34.5327 11.2476V1.2468C35.0938 1.14778 35.636 1.07469 36.1594 1.02754C36.6875 0.975677 37.2014 0.935598 37.7013 0.907307V2.51988ZM50.715 3.58079C50.9555 3.58079 51.2455 3.59258 51.585 3.61615C51.9245 3.63973 52.2757 3.68217 52.6388 3.74346C53.0066 3.80004 53.3697 3.88256 53.728 3.99101C54.0864 4.09474 54.407 4.22912 54.6899 4.39415C54.9775 4.55918 55.2086 4.75958 55.383 4.99533C55.5622 5.22637 55.6518 5.49985 55.6518 5.81577V8.20634H47.5465V10.017C48.117 10.0971 48.6663 10.1537 49.1944 10.1867C49.7225 10.215 50.2294 10.2291 50.715 10.2291C51.4553 10.2291 52.1249 10.2008 52.7237 10.1443C53.3272 10.0877 53.8482 10.024 54.2868 9.9533C54.7913 9.87314 55.2463 9.7812 55.6518 9.67746V11.2476C54.7559 11.3891 53.8907 11.4904 53.0561 11.5517C52.2262 11.613 51.4459 11.6437 50.715 11.6437C49.9795 11.6437 49.3123 11.6248 48.7135 11.5871C48.1146 11.5447 47.6007 11.4975 47.1716 11.4456C46.6718 11.3891 46.2215 11.323 45.8207 11.2476V5.81577C45.8207 5.49985 45.8985 5.22637 46.0541 4.99533C46.2097 4.75958 46.4172 4.55918 46.6765 4.39415C46.9359 4.22912 47.2329 4.09474 47.5677 3.99101C47.9072 3.88256 48.2584 3.80004 48.6215 3.74346C48.9846 3.68217 49.3453 3.63973 49.7036 3.61615C50.0667 3.59258 50.4038 3.58079 50.715 3.58079ZM47.5465 7.07471H53.8978V6.25427C53.8978 6.06095 53.8506 5.89592 53.7563 5.75918C53.662 5.61773 53.5347 5.49985 53.3744 5.40555C53.2188 5.31125 53.0349 5.2358 52.8227 5.17922C52.6152 5.11793 52.3983 5.07313 52.172 5.04484C51.9457 5.01183 51.717 4.99062 51.486 4.98119C51.2596 4.97176 51.0451 4.96704 50.8423 4.96704C50.6302 4.96704 50.4015 4.97176 50.1563 4.98119C49.9158 4.99062 49.673 5.01183 49.4278 5.04484C49.1826 5.07785 48.9469 5.125 48.7205 5.1863C48.4942 5.24288 48.2938 5.32068 48.1194 5.41969C47.9449 5.514 47.8058 5.63188 47.7021 5.77333C47.5983 5.91007 47.5465 6.0751 47.5465 6.26842V7.07471ZM65.7799 8.75801C65.662 8.65428 65.5159 8.5529 65.3414 8.45389C65.1669 8.35487 64.9524 8.26764 64.6978 8.1922C64.4432 8.11204 64.139 8.04838 63.7854 8.00123C63.4365 7.94937 63.0263 7.92343 62.5548 7.92343C62.1351 7.92343 61.7367 7.93286 61.3595 7.95172C60.987 7.96587 60.6593 8.01302 60.3764 8.09318C60.0935 8.16862 59.8695 8.29121 59.7045 8.46096C59.5394 8.6307 59.4569 8.86646 59.4569 9.16823V10.0735C59.8718 10.1395 60.3292 10.1938 60.829 10.2362C61.3288 10.2786 61.8852 10.2999 62.4982 10.2999C62.9885 10.2999 63.5096 10.2834 64.0612 10.2504C64.6176 10.2126 65.1905 10.1395 65.7799 10.0311V8.75801ZM62.5972 3.58079C62.8329 3.58079 63.1182 3.59258 63.453 3.61615C63.7878 3.63973 64.1367 3.68217 64.4997 3.74346C64.8628 3.80004 65.2212 3.8802 65.5748 3.98393C65.9331 4.08295 66.2538 4.21498 66.5367 4.38001C66.8243 4.54032 67.0554 4.73364 67.2298 4.95997C67.4043 5.1863 67.4915 5.4527 67.4915 5.75918V11.2335C67.0954 11.3136 66.6475 11.382 66.1477 11.4386C65.7186 11.4904 65.207 11.5376 64.6129 11.58C64.0188 11.6225 63.3563 11.6437 62.6255 11.6437C61.8993 11.6437 61.1261 11.613 60.3056 11.5517C59.4899 11.4904 58.6365 11.3843 57.7453 11.2335V8.68729C57.7453 8.41381 57.809 8.17569 57.9363 7.97294C58.0683 7.76548 58.2475 7.58866 58.4738 7.44249C58.7001 7.29632 58.9665 7.17608 59.273 7.08178C59.5795 6.98748 59.9096 6.91204 60.2632 6.85545C60.6168 6.79887 60.9846 6.76115 61.3665 6.74229C61.7485 6.71871 62.1304 6.70693 62.5123 6.70693C63.0923 6.70693 63.585 6.74465 63.9905 6.82009C64.4007 6.89082 64.7402 6.96862 65.009 7.05349C65.3202 7.15722 65.5772 7.27274 65.7799 7.40005V6.25427C65.7799 6.06095 65.7328 5.89592 65.6385 5.75918C65.5442 5.61773 65.4168 5.49985 65.2565 5.40555C65.0962 5.30653 64.9123 5.22873 64.7049 5.17215C64.4974 5.11085 64.2805 5.0637 64.0542 5.0307C63.8278 4.99769 63.5968 4.97647 63.361 4.96704C63.13 4.95761 62.9131 4.9529 62.7104 4.9529C62.4982 4.9529 62.2718 4.95997 62.0314 4.97411C61.7909 4.98354 61.5504 5.00476 61.31 5.03777C61.0742 5.07077 60.8455 5.11793 60.6239 5.17922C60.407 5.2358 60.2137 5.3136 60.0439 5.41262C59.8742 5.51164 59.7375 5.63188 59.6337 5.77333C59.5347 5.91007 59.4852 6.0751 59.4852 6.26842L57.7312 5.81577C57.7312 5.49985 57.809 5.22637 57.9646 4.99533C58.1202 4.75958 58.3253 4.55918 58.5799 4.39415C58.8392 4.22912 59.1363 4.09474 59.4711 3.99101C59.8058 3.88256 60.1524 3.80004 60.5107 3.74346C60.8738 3.68217 61.2345 3.63973 61.5929 3.61615C61.9512 3.59258 62.286 3.58079 62.5972 3.58079ZM74.1115 3.58079C74.5123 3.58079 74.9202 3.59729 75.3351 3.6303C75.7501 3.65859 76.1485 3.69867 76.5304 3.75054C76.9171 3.79769 77.2778 3.85427 77.6125 3.92028C77.952 3.98629 78.2467 4.05702 78.4966 4.13246H78.6098V11.9973C78.6098 12.3321 78.5391 12.6433 78.3976 12.9309C78.2562 13.2185 78.051 13.4661 77.7823 13.6735C77.5135 13.8857 77.1835 14.0508 76.7921 14.1686C76.4007 14.2865 75.9552 14.3455 75.4554 14.3455V13.1148C75.644 13.1148 75.8184 13.0959 75.9787 13.0582C76.1391 13.0205 76.2782 12.9616 76.396 12.8814C76.5186 12.806 76.6129 12.7093 76.6789 12.5914C76.7497 12.4783 76.785 12.3462 76.785 12.1953V11.1062C76.356 11.2712 75.9104 11.4032 75.4483 11.5022C74.9909 11.5965 74.5453 11.6437 74.1115 11.6437C73.3854 11.6437 72.7371 11.5942 72.1666 11.4951C71.596 11.3914 71.1127 11.2335 70.7166 11.0213C70.3206 10.8091 70.0188 10.5403 69.8113 10.215C69.6039 9.88965 69.5001 9.503 69.5001 9.05507V6.1694C69.5001 5.72146 69.6039 5.33482 69.8113 5.00948C70.0188 4.68413 70.3206 4.41537 70.7166 4.20319C71.1127 3.99101 71.596 3.83541 72.1666 3.73639C72.7371 3.63266 73.3854 3.58079 74.1115 3.58079ZM74.6208 10.2291C74.8801 10.2291 75.1182 10.2126 75.3351 10.1796C75.552 10.1419 75.7477 10.0948 75.9222 10.0382C76.1013 9.98159 76.2617 9.92265 76.4031 9.86135C76.5493 9.79534 76.6766 9.73405 76.785 9.67746V5.27824C76.6577 5.23109 76.5092 5.18394 76.3395 5.13679C76.1744 5.08963 75.9952 5.04956 75.8019 5.01655C75.6133 4.97883 75.4176 4.95054 75.2149 4.93168C75.0121 4.9081 74.8141 4.89631 74.6208 4.89631C74.1823 4.89631 73.765 4.9081 73.3689 4.93168C72.9728 4.95525 72.6263 5.01891 72.3292 5.12264C72.0322 5.22637 71.7941 5.38669 71.6149 5.60358C71.4404 5.81577 71.3532 6.11282 71.3532 6.49475V8.57412C71.3532 8.82402 71.3933 9.03856 71.4734 9.21774C71.5536 9.39691 71.6644 9.5478 71.8058 9.67039C71.952 9.79299 72.1265 9.892 72.3292 9.96745C72.532 10.0382 72.7536 10.0948 72.9941 10.1372C73.2345 10.1749 73.4915 10.2008 73.765 10.215C74.0432 10.2244 74.3284 10.2291 74.6208 10.2291ZM82.4291 9.08336C82.4291 9.30025 82.5069 9.48179 82.6625 9.62796C82.8228 9.77412 83.035 9.89436 83.299 9.98866C83.5678 10.0783 83.8766 10.1443 84.2255 10.1867C84.5744 10.2244 84.9375 10.2433 85.3147 10.2433C85.7108 10.2433 86.0833 10.2221 86.4322 10.1796C86.7811 10.1325 87.0853 10.0641 87.3446 9.97452C87.6039 9.88022 87.809 9.75998 87.9599 9.61381C88.1108 9.46764 88.1862 9.29082 88.1862 9.08336V3.58079L90.0676 3.72224V9.53601C90.0676 9.79063 90.0039 10.024 89.8766 10.2362C89.754 10.4484 89.5819 10.6394 89.3603 10.8091C89.1387 10.9741 88.877 11.1179 88.5752 11.2405C88.2735 11.3631 87.9458 11.4645 87.5921 11.5447C87.2432 11.6248 86.8731 11.6838 86.4817 11.7215C86.0951 11.7639 85.7061 11.7851 85.3147 11.7851C84.9187 11.7851 84.5273 11.7639 84.1407 11.7215C83.754 11.6838 83.3839 11.6248 83.0302 11.5447C82.6813 11.4645 82.356 11.3631 82.0542 11.2405C81.7524 11.1179 81.4907 10.9741 81.2691 10.8091C81.0475 10.6394 80.8731 10.4507 80.7458 10.2433C80.6232 10.0311 80.5619 9.79534 80.5619 9.53601V3.72224L82.4291 3.58079V9.08336ZM97.1261 3.58079C97.3666 3.58079 97.6566 3.59258 97.9961 3.61615C98.3356 3.63973 98.6868 3.68217 99.0499 3.74346C99.4177 3.80004 99.7808 3.88256 100.139 3.99101C100.497 4.09474 100.818 4.22912 101.101 4.39415C101.389 4.55918 101.62 4.75958 101.794 4.99533C101.973 5.22637 102.063 5.49985 102.063 5.81577V8.20634H93.9576V10.017C94.5281 10.0971 95.0774 10.1537 95.6055 10.1867C96.1336 10.215 96.6405 10.2291 97.1261 10.2291C97.8664 10.2291 98.536 10.2008 99.1348 10.1443C99.7383 10.0877 100.259 10.024 100.698 9.9533C101.202 9.87314 101.657 9.7812 102.063 9.67746V11.2476C101.167 11.3891 100.302 11.4904 99.4672 11.5517C98.6373 11.613 97.857 11.6437 97.1261 11.6437C96.3906 11.6437 95.7234 11.6248 95.1246 11.5871C94.5257 11.5447 94.0118 11.4975 93.5827 11.4456C93.0829 11.3891 92.6326 11.323 92.2318 11.2476V5.81577C92.2318 5.49985 92.3096 5.22637 92.4652 4.99533C92.6208 4.75958 92.8283 4.55918 93.0876 4.39415C93.347 4.22912 93.644 4.09474 93.9788 3.99101C94.3183 3.88256 94.6696 3.80004 95.0326 3.74346C95.3957 3.68217 95.7564 3.63973 96.1147 3.61615C96.4778 3.59258 96.8149 3.58079 97.1261 3.58079ZM93.9576 7.07471H100.309V6.25427C100.309 6.06095 100.262 5.89592 100.167 5.75918C100.073 5.61773 99.9458 5.49985 99.7855 5.40555C99.6299 5.31125 99.446 5.2358 99.2338 5.17922C99.0263 5.11793 98.8094 5.07313 98.5831 5.04484C98.3568 5.01183 98.1281 4.99062 97.8971 4.98119C97.6707 4.97176 97.4562 4.96704 97.2534 4.96704C97.0413 4.96704 96.8126 4.97176 96.5674 4.98119C96.3269 4.99062 96.0841 5.01183 95.8389 5.04484C95.5937 5.07785 95.358 5.125 95.1316 5.1863C94.9053 5.24288 94.7049 5.32068 94.5305 5.41969C94.356 5.514 94.2169 5.63188 94.1132 5.77333C94.0094 5.91007 93.9576 6.0751 93.9576 6.26842V7.07471Z" fill="#1E1E1E"/>
</svg>
